# xmcd
#
# Track frame offsets:
#	150
#	19568
#	33959
#	54342
#	70786
#	90827
#	106552
#	120951
#	138267
#	151136
#
# Disc length: 2291 seconds
#
# Revision: 0
# Processed by: cddbd v1.5.1PL2 Copyright (c) Steve Scherf et al.
# Submitted via: EasyCDDAExtractor 9.1.1.2
#
DISCID=6008f10a
DTITLE=Bonnie Nichols - I've Got Something To Say
DYEAR=2006
DGENRE=Country
TTITLE0=Red, White and Blue
TTITLE1=Superhuman Kind of Love
TTITLE2=Turn The Quiet Up
TTITLE3=They Took My Lord Away
TTITLE4=Grace
TTITLE5=Borrowed Wings
TTITLE6=Family Matters
TTITLE7=Straight To My Heart
TTITLE8=Lullaby in Three Quarter Time
TTITLE9=New Beginning
EXTD=
EXTT0=
EXTT1=
EXTT2=
EXTT3=
EXTT4=
EXTT5=
EXTT6=
EXTT7=
EXTT8=
EXTT9=
PLAYORDER=
